# xmcd CD database file
#
# Track frame offsets:
#	150
#	17817
#	31095
#	48890
#	66722
#	77737
#	93135
#	108885
#	121577
#	131127
#	146712
#	161735
#
# Disc length: 2424 seconds
#
# Revision: 0
# Processed by: cddbd v1.5.2PL0 Copyright (c) Steve Scherf et al.
# Submitted via: CDex 1.70beta2
#
DISCID=9a09760c
DTITLE=Moijn Dry - Happy Country
DYEAR=1992
DGENRE=Country
TTITLE0=Wieder zu hause
TTITLE1=Funny Face
TTITLE2=Montana Joe
TTITLE3=More Of You
TTITLE4=Storybook Children
TTITLE5=Weekend Cowboy
TTITLE6=Scotty Boy
TTITLE7=You're My Best Friend
TTITLE8=Himmel hilf mir
TTITLE9=Trucker
TTITLE10=Blanket On The Ground
TTITLE11=Kannst du versteh'n
EXTD=YEAR: 1992
EXTT0=
EXTT1=
EXTT2=
EXTT3=
EXTT4=
EXTT5=
EXTT6=
EXTT7=
EXTT8=
EXTT9=
EXTT10=
EXTT11=
PLAYORDER=
